<svg width="256.000000pt" height="256.000000pt" viewBox="0 0 256.000000 256.000000" xmlns="http://www.w3.org/2000/svg">
  <g transform="translate(0.000000,256.000000) scale(0.100000,-0.100000)" fill="#fefefe" stroke="none">
    <path d="M0 1280 l0 -1280 1280 0 1280 0 0 1280 0 1280 -1280 0 -1280 0 0
-1280z m1090 852 l22 -17 33 -110 33 -110 642 -5 643 -5 19 -26 19 -25 -65
-340 -65 -339 -26 -22 c-14 -13 -34 -23 -43 -24 -9 0 -226 -26 -482 -57 l-465
-57 -9 -27 -9 -27 14 -17 14 -17 110 6 c60 4 200 14 311 22 110 8 273 16 361
17 l161 3 21 -19 c26 -23 27 -48 4 -68 l-18 -16 -170 -6 c-93 -4 -271 -14
-395 -23 -124 -9 -263 -17 -310 -17 l-85 -1 -41 23 c-73 42 -93 114 -57 203
l16 42 -9 46 c-6 25 -66 236 -135 468 l-124 423 -98 0 -98 0 -25 26 -26 25 7
27 c3 15 16 35 28 44 l22 18 126 0 127 0 22 -18z m-410 -207 c36 -19 60 -62
60 -108 0 -19 3 -62 6 -96 l7 -61 14 0 c8 0 31 28 51 62 68 114 96 129 151 82
l31 -26 0 -22 c0 -26 -62 -127 -121 -197 -47 -56 -46 -44 -4 -115 40 -66 75
-169 75 -219 l0 -34 -26 -20 c-36 -28 -60 -26 -94 7 l-28 28 -7 45 c-9 55 -43
129 -60 129 l-12 0 -12 -57 c-7 -32 -22 -78 -32 -102 -10 -24 -19 -51 -19 -61
0 -25 -122 -138 -177 -162 l-48 -22 -60 0 -60 1 -46 22 c-93 44 -172 135 -199
227 l-12 41 16 31 c47 92 159 80 214 -23 l27 -50 55 0 54 0 22 33 c43 63 74
260 74 469 0 186 54 253 160 198z m738 -1215 l33 -21 21 -46 20 -46 -11 -36
c-6 -20 -26 -52 -45 -70 l-34 -33 -44 -5 -43 -5 -34 24 c-19 12 -43 35 -54 50
l-20 26 0 41 0 40 20 31 c11 18 33 40 49 51 l29 19 40 0 40 0 33 -20z m822 5
c36 -19 70 -66 76 -107 l5 -33 -23 -44 -23 -44 -35 -18 c-19 -11 -49 -19 -66
-19 l-31 0 -33 23 c-18 12 -42 34 -52 48 l-19 25 -1 42 0 41 19 32 c11 17 33
39 49 50 l29 19 38 0 c21 0 51 -7 67 -15z" />
    <path d="M1230 1733 c0 -10 14 -63 30 -117 17 -55 30 -101 30 -103 0 -1 68 -3
150 -3 l150 0 0 120 0 120 -180 0 -180 0 0 -17z" />
    <path d="M1650 1630 l0 -120 155 0 155 0 0 120 0 120 -155 0 -155 0 0 -120z" />
    <path d="M2020 1630 l0 -120 140 0 140 0 5 23 c11 49 35 183 35 200 l0 17
-160 0 -160 0 0 -120z" />
    <path d="M1320 1431 c0 -16 38 -155 71 -259 l11 -34 52 7 c28 3 70 9 94 12
l42 5 0 144 0 144 -135 0 -135 0 0 -19z" />
    <path d="M1650 1310 c0 -77 3 -140 7 -140 15 0 259 31 281 36 l22 4 0 120 0
120 -155 0 -155 0 0 -140z" />
    <path d="M2020 1335 l0 -115 21 0 c11 0 62 5 114 12 l94 11 11 51 c6 28 14 75
17 104 l6 52 -132 0 -131 0 0 -115z" />
  </g>
  <g transform="translate(0.000000,256.000000) scale(0.100000,-0.100000)" fill="#004aac" stroke="none">
    <path d="M808 2143 c-10 -2 -18 -11 -18 -19 0 -8 -4 -14 -9 -14 -5 0 -9 -19
-8 -42 l2 -42 25 -7 c14 -4 33 -7 43 -8 l17 -1 0 15 0 15 51 0 c28 0 59 -5 69
-10 l19 -10 7 -35 6 -35 14 0 c14 0 19 -17 15 -58 -2 -24 13 -88 31 -131 7
-14 17 -48 23 -76 20 -83 71 -249 85 -274 7 -13 14 -36 15 -50 2 -14 14 -63
26 -108 l24 -82 20 -6 20 -6 -12 -6 c-15 -5 -18 -43 -4 -43 5 0 7 -9 4 -21
l-6 -21 14 -9 14 -9 -22 -6 -23 -6 0 -28 c0 -16 -5 -30 -11 -32 l-11 -4 7 -42
7 -42 13 0 c8 0 16 8 18 18 l5 17 1 -31 1 -31 25 -13 c14 -7 25 -17 25 -22 0
-4 7 -8 15 -8 8 0 15 -4 15 -9 0 -5 36 -9 80 -9 44 0 80 3 80 8 0 12 58 18 70
6 l10 -10 36 13 35 13 50 -7 49 -7 0 9 c0 4 35 8 78 8 42 1 164 3 269 5 l193
5 0 17 0 16 20 -5 20 -5 0 23 c0 13 -4 30 -9 38 l-9 14 -15 -6 -16 -6 -4 12
-3 11 -97 3 -97 2 0 -8 c0 -13 -59 -19 -99 -10 l-36 8 -110 -9 c-122 -10 -276
-21 -315 -21 -14 -1 -28 -5 -31 -10 -3 -5 -39 -11 -81 -12 l-75 -3 -11 28 -10
28 9 0 c5 0 9 9 9 19 l0 20 48 6 c93 12 112 16 112 25 l0 10 65 -6 65 -6 0 12
0 11 45 -7 45 -6 0 18 0 18 12 -12 c13 -13 68 -17 68 -4 0 5 32 9 72 10 39 0
74 5 77 9 3 4 42 10 86 12 44 1 84 6 90 9 5 4 22 5 37 3 16 -1 28 2 28 7 0 4
14 6 32 4 l31 -5 15 19 14 19 5 -12 c3 -7 13 -13 24 -13 l19 0 0 15 c0 8 7 15
15 15 l14 0 11 41 c6 22 13 64 15 93 2 29 9 65 16 80 l13 27 -15 9 -14 9 17
13 c9 7 19 28 23 46 l7 32 -19 0 -18 1 19 14 19 14 -6 15 c-3 8 -1 16 5 18 12
4 41 146 32 160 -4 6 0 14 7 19 l14 8 -13 21 -12 20 14 0 15 0 -1 41 0 41 -17
6 c-9 3 -19 9 -22 14 l-6 9 -626 2 -627 2 0 -17 c0 -10 -6 -18 -14 -18 l-14 0
5 20 5 20 -12 0 -12 0 6 28 6 27 -19 36 c-11 20 -18 39 -15 42 3 3 0 23 -7 46
l-12 41 -19 5 c-10 4 -18 11 -18 16 l0 9 -127 -1 c-71 -1 -136 -3 -145 -6z
m1152 -496 l0 -143 -50 3 -50 3 0 -10 0 -10 -60 0 -60 0 0 10 c0 6 -16 10 -35
10 l-34 0 -9 -16 -9 -17 -19 11 -19 11 16 1 17 0 0 40 c0 22 -3 40 -9 40 l-9
0 0 80 0 80 15 0 c8 0 15 4 15 9 l0 9 135 -2 135 -2 0 12 c0 7 -10 15 -22 17
l-23 4 38 2 37 1 0 -143z m385 106 c-4 -10 -9 -43 -11 -73 -2 -30 -9 -57 -14
-58 l-10 -4 6 -48 6 -48 -33 -7 c-19 -4 -38 -11 -44 -15 -5 -4 -58 -7 -117 -6
l-108 2 -5 -11 c-3 -5 -3 8 0 30 3 22 5 86 5 143 l0 104 155 -3 c85 -1 158 0
161 4 13 12 16 8 9 -10z m-758 -6 c4 -5 8 -58 9 -118 l0 -110 -28 -6 c-15 -3
-28 -9 -28 -14 0 -12 -127 -11 -135 1 -3 5 -25 9 -48 8 -23 0 -47 0 -53 1 -7
1 -20 33 -29 71 -9 39 -21 70 -25 70 -9 0 -20 91 -13 103 l5 9 168 -4 c93 -1
172 -7 177 -11z m176 -301 c45 3 109 6 142 8 l60 3 -3 -122 -3 -123 -32 -7
c-18 -3 -60 -9 -95 -11 -34 -3 -74 -9 -89 -15 -14 -5 -41 -7 -59 -3 l-34 6 0
19 c0 11 -4 19 -10 19 l-10 0 0 90 c0 50 3 90 8 90 4 0 14 14 21 32 8 18 16
27 18 21 l4 -11 82 4z m522 -20 l9 -27 -14 -9 -14 -8 0 -51 c-1 -28 -4 -51 -8
-51 -5 0 -8 -11 -8 -25 l0 -26 -35 7 -35 6 0 -16 c0 -9 -7 -16 -15 -16 -8 0
-15 -6 -16 -12 0 -7 -4 -3 -9 10 l-9 22 -20 0 c-11 0 -21 -5 -23 -11 l-4 -12
-31 7 -32 7 -3 113 -3 113 113 0 c62 0 115 3 119 7 12 12 28 0 38 -28z m-691
-24 c3 -25 6 -82 6 -126 l0 -82 -12 -16 -13 -16 -83 -9 -82 -9 -15 29 c-8 17
-15 41 -15 54 0 12 -5 23 -11 23 -5 0 -7 5 -4 10 10 17 -5 50 -23 51 l-17 1
13 5 c14 6 16 33 2 33 -5 0 -10 8 -10 18 0 10 -5 23 -11 29 -6 6 -8 19 -5 30
l6 18 134 1 134 1 6 -45z" />
    <path d="M580 1929 c0 -5 -7 -9 -15 -9 -8 0 -15 -6 -15 -14 0 -8 -6 -16 -12
-19 l-13 -4 3 -94 c2 -52 -2 -116 -8 -142 l-10 -48 11 -21 11 -21 -10 -6 c-5
-3 -12 -28 -15 -56 -3 -27 -12 -81 -21 -120 l-17 -70 11 -3 c18 -6 11 -22 -10
-22 l-20 0 0 -15 c0 -8 6 -15 13 -15 6 -1 -2 -7 -19 -14 -18 -8 -35 -19 -38
-25 l-7 -10 -32 6 c-18 3 -47 17 -65 31 l-32 24 0 30 0 30 -22 19 -23 18 -35
-6 c-19 -4 -44 -6 -54 -5 -29 2 -56 -17 -56 -38 0 -11 -4 -20 -10 -20 -22 0
-4 -111 22 -130 4 -3 11 -18 17 -33 6 -15 17 -27 26 -27 l15 0 6 -26 7 -26 19
5 20 6 19 -17 c10 -9 19 -22 19 -28 0 -18 55 -36 118 -40 l57 -3 43 16 42 16
1 16 1 16 5 -12 c7 -20 31 -15 38 7 3 11 13 20 22 20 8 0 17 9 20 20 3 11 11
20 18 20 7 0 24 15 39 33 l27 32 -3 33 -4 32 11 0 c12 0 45 89 45 121 0 11 -4
19 -10 19 -19 0 -10 15 15 27 l25 11 0 -14 c0 -16 40 -97 53 -105 l9 -7 -12
-4 -13 -4 17 -51 17 -51 41 -6 41 -7 6 9 c3 5 14 11 24 15 l17 6 0 31 c0 16
-4 30 -9 30 -5 0 -11 9 -14 20 -3 11 -1 20 4 20 22 0 -12 127 -37 137 -8 3
-14 15 -14 28 l0 22 -24 18 -23 18 38 40 c22 21 39 47 39 57 l0 18 20 5 20 5
6 31 c4 18 15 37 24 44 l18 12 0 35 0 35 -35 23 -34 22 -27 -7 c-28 -7 -52
-25 -52 -41 0 -5 -11 -22 -25 -38 -28 -32 -30 -45 -13 -62 l12 -12 -27 0 -27
0 0 -14 c0 -7 -6 -18 -13 -24 l-12 -11 3 106 4 107 -14 10 c-8 6 -20 28 -27
49 l-13 37 -14 0 c-8 0 -14 -6 -14 -12 l-1 -13 -9 17 -10 16 -35 0 c-19 0 -35
-4 -35 -9z" />
    <path d="M1270 712 c-14 -9 -32 -23 -40 -31 l-14 -14 -1 -38 c0 -22 -3 -39 -7
-39 -5 0 -8 -11 -8 -25 0 -14 5 -25 10 -25 6 0 10 -7 10 -16 0 -43 119 -98
133 -61 l5 12 1 -12 c1 -15 31 -18 31 -4 0 5 9 7 20 4 l20 -5 7 18 c4 11 17
30 30 44 l23 25 0 47 0 47 -22 3 -23 3 -5 35 -5 35 -19 3 c-10 2 -22 -2 -27
-10 l-9 -13 0 18 0 17 -42 -1 -43 0 -25 -17z" />
    <path d="M2096 714 l-28 -16 5 -25 5 -25 -20 -6 -20 -5 5 -23 c2 -13 0 -24 -4
-24 -13 0 -11 -48 2 -55 5 -4 14 -18 19 -31 l10 -24 30 -6 c16 -4 30 -10 30
-15 0 -14 38 -11 43 4 l5 12 1 -12 c2 -23 91 -5 91 18 0 5 11 19 24 33 l25 24
-1 51 c0 28 -4 51 -9 51 -5 0 -9 9 -9 20 l0 20 -18 0 c-9 0 -26 11 -36 25
l-19 25 -51 0 -51 -1 -29 -15z" />
  </g>
  <g transform="translate(0.000000,256.000000) scale(0.100000,-0.100000)" fill="#0049ae" stroke="none">
    <path d="M793 2140 l-22 -9 -6 -35 c-4 -19 -4 -40 0 -46 l7 -11 13 11 12 10
13 -15 12 -15 -11 0 c-6 0 -11 -4 -11 -10 l0 -10 105 0 105 0 0 10 c0 19 -40
30 -117 32 l-78 2 85 6 85 6 -86 2 -85 2 -20 15 c-10 8 -14 15 -7 15 6 0 13 6
16 13 2 6 3 4 2 -5 l-3 -17 15 6 c8 3 12 11 9 18 -2 7 1 18 7 24 l11 11 -14
-1 c-8 0 -25 -4 -37 -9z" />
    <path d="M1067 2134 c-13 -13 -7 -26 8 -20 22 8 18 -7 -5 -22 -22 -13 -27 -38
-8 -44 l12 -4 -9 -14 -8 -14 -28 34 c-16 19 -32 31 -35 27 -4 -4 2 -17 14 -30
l21 -22 -9 -15 c-5 -8 -10 -22 -10 -29 l0 -15 9 10 c5 5 11 18 13 28 l3 19 15
-18 15 -19 -12 8 c-16 9 -17 -6 -2 -21 l12 -12 13 13 13 13 -9 39 c-5 21 -10
46 -10 54 l0 14 9 -9 c6 -6 14 -32 19 -60 5 -27 10 -40 11 -27 l1 23 10 -6 c6
-4 8 -10 5 -15 -3 -4 2 -10 10 -14 l15 -5 0 18 c0 31 -11 50 -25 45 l-13 -5 4
31 4 31 -10 -6 -10 -6 3 23 2 22 -15 3 c-9 2 -19 1 -23 -3z" />
    <path d="M1025 1961 c-3 -6 0 -30 6 -55 l11 -45 14 6 c8 3 14 9 14 15 0 5 -6
6 -12 2 l-13 -7 11 12 11 12 -11 34 c-11 35 -20 43 -31 26z" />
    <path d="M1152 1927 c-15 -36 -15 -37 2 -37 l14 0 -5 -20 c-3 -11 -9 -20 -14
-20 -5 0 -9 -9 -9 -20 0 -11 5 -20 10 -20 6 0 10 6 10 14 0 8 12 18 28 23 l27
8 618 -3 617 -2 0 -10 0 -10 -51 0 -50 0 6 -10 6 -10 -23 0 -23 0 15 10 15 10
-550 0 c-302 0 -560 3 -572 6 l-23 6 0 -11 0 -11 181 0 180 0 19 -10 19 -10
23 9 c29 10 49 4 42 -14 l-6 -14 -14 6 -14 5 0 -17 c0 -9 4 -14 9 -10 5 3 12
1 16 -5 3 -5 17 -10 30 -10 l24 0 -6 16 -6 15 -14 -5 c-8 -3 -12 -2 -9 2 3 5
50 10 106 11 l100 2 0 -10 c0 -6 8 -11 18 -11 10 0 28 -7 40 -16 12 -8 27 -12
32 -9 l10 6 1 -83 c0 -46 4 -91 8 -102 4 -10 5 26 3 80 -2 55 -9 107 -14 117
-5 10 -7 21 -4 24 7 7 36 -23 36 -37 l0 -12 16 6 c9 3 78 6 153 6 l138 0 0 13
0 12 -146 -3 -146 -2 15 9 c8 5 75 11 148 13 l132 3 6 -20 c4 -11 12 -23 18
-27 13 -9 17 -66 5 -74 -5 -3 -9 -10 -9 -15 0 -6 5 -7 10 -4 l10 6 0 -16 0
-17 -15 6 -15 5 -1 -12 c-1 -7 -1 -18 0 -26 2 -7 -2 -10 -7 -7 l-10 6 -4 -43
c-5 -46 -1 -67 13 -67 5 0 9 20 9 45 l0 45 10 0 c6 0 10 9 10 21 l0 20 11 -6
c6 -4 8 -13 5 -21 -3 -7 -1 -16 4 -19 l10 -6 0 45 0 44 -12 6 -13 6 13 6 c15
7 16 46 1 61 l-11 11 12 7 11 7 -18 15 c-10 8 -12 11 -5 8 l13 -7 6 21 5 21
35 0 c37 0 56 14 61 43 l3 19 -32 -7 -32 -7 6 8 c3 5 -5 9 -18 9 -13 0 -21 -3
-18 -7 2 -5 -258 -8 -577 -8 l-582 0 6 15 5 15 -14 0 -14 0 5 -15 c8 -20 2
-19 -23 3 -12 10 -23 29 -25 42 l-4 25 -12 -28z m813 -116 c-4 -3 -69 -6 -145
-6 -77 0 -131 3 -122 7 22 8 275 8 267 -1z m330 4 c-21 -7 -306 -12 -294 -4 7
4 78 7 158 8 80 0 142 -2 136 -4z" />
    <path d="M580 1933 c-27 -11 -36 -28 -36 -66 l0 -39 11 16 c7 9 15 12 19 9 4
-4 2 5 -3 20 -14 36 -14 37 4 37 8 0 15 4 15 9 0 5 8 7 19 4 10 -3 22 0 25 6
l7 11 -23 -1 c-13 0 -30 -3 -38 -6z" />
    <path d="M647 1918 c-2 -7 3 -18 12 -24 l15 -12 -12 -27 -12 -26 10 6 c5 3 10
2 10 -3 0 -6 7 -13 17 -16 l16 -7 19 20 c26 29 13 81 -20 81 l-12 0 10 -25 10
-25 -10 0 c-12 0 -24 45 -15 59 l6 11 -20 0 c-10 0 -21 -6 -24 -12z" />
    <path d="M520 1764 l0 -115 10 6 11 7 -2 109 c-3 146 -19 140 -19 -7z" />
    <path d="M2482 1838 c-7 -7 -12 -20 -12 -29 0 -10 -5 -21 -11 -24 l-10 -7 17
-19 17 -19 -16 0 c-21 0 -21 -10 -3 -35 l13 -18 7 45 c4 24 4 53 0 63 l-7 18
11 -7 12 -7 0 25 c0 30 -1 31 -18 14z" />
    <path d="M887 1824 c-3 -3 -3 -13 0 -22 l6 -15 -13 8 -13 8 7 -11 c3 -6 2 -13
-4 -17 -5 -3 -10 -1 -10 4 0 6 -4 11 -10 11 -18 0 -11 -39 9 -50 l20 -10 23 9
23 10 -15 2 c-8 1 -18 1 -21 1 -4 -1 -5 7 -2 18 l5 20 17 -10 c9 -4 24 -15 34
-22 l18 -14 -25 -14 -26 -13 0 -33 c0 -18 -4 -35 -9 -39 -10 -5 -7 -43 4 -53
13 -13 28 20 28 60 l0 43 16 12 c9 7 12 13 8 13 -4 0 -2 6 5 14 l13 14 13 -10
12 -10 0 24 c0 14 -9 37 -21 52 l-20 26 -33 0 c-18 0 -35 -3 -39 -6z m91 -52
c-15 -6 -36 6 -48 27 l-10 20 33 -22 c19 -12 30 -24 25 -25z" />
    <path d="M1089 1827 c-3 -12 -6 -22 -13 -38 -6 -15 8 -69 18 -69 3 0 13 16 22
35 l17 36 -10 22 -10 21 -7 -42 -6 -43 -10 6 -9 5 11 31 c6 16 8 33 4 36 -3 4
-7 3 -7 0z" />
    <path d="M1230 1800 l0 -10 159 0 160 0 6 10 6 10 -165 0 -166 0 0 -10z" />
    <path d="M1570 1780 c18 -11 17 -7 19 -116 l1 -85 11 6 10 7 -1 71 c-1 40 1
80 5 91 l8 18 -14 9 c-8 5 -23 9 -34 9 l-20 0 15 -10z" />
    <path d="M1723 1763 l0 -13 86 0 85 0 -9 9 c-6 5 -44 11 -86 13 l-76 3 0 -12z" />
    <path d="M1222 1763 c-34 -14 11 -18 167 -15 l172 3 -6 9 -6 10 -157 -1 c-86
0 -163 -3 -170 -6z" />
    <path d="M1133 1753 c-7 -2 -9 -11 -6 -19 3 -8 0 -14 -6 -14 l-10 0 6 -32 c3
-18 9 -37 14 -42 l8 -9 7 18 c4 10 3 25 -3 34 l-10 16 9 24 c9 27 8 30 -9 24z" />
    <path d="M556 1742 c-16 -27 -2 -227 15 -216 12 7 11 71 -1 79 l-10 6 6 70 c6
63 3 82 -10 61z" />
    <path d="M1620 1671 c0 -84 -6 -115 -21 -105 -10 6 -12 -39 -2 -49 4 -4 13 7
20 24 7 18 16 30 19 27 7 -7 -27 -78 -38 -78 -4 0 -8 5 -8 10 0 19 -16 10 -17
-10 -1 -11 3 -20 8 -20 6 0 7 -5 4 -11 l-7 -11 21 -14 21 -15 0 -124 c0 -68
-3 -126 -7 -128 -5 -3 -6 47 -5 110 l4 115 -11 11 -11 11 0 -126 c0 -126 6
-152 30 -123 7 8 16 12 21 9 l9 -5 0 134 0 135 -15 12 -15 12 0 -16 0 -17 -10
6 -10 6 10 19 10 18 19 -5 c11 -3 22 -11 25 -19 3 -8 13 -14 21 -14 l16 0 -7
12 -7 11 16 -6 15 -6 6 15 5 14 76 0 76 0 -6 10 c-9 14 8 13 23 -2 l11 -11 14
12 14 11 12 -14 11 -14 -22 -6 -23 -7 25 -11 c14 -6 28 -11 32 -10 3 1 6 -48
7 -108 l0 -110 -9 5 c-15 9 -22 -15 -10 -30 l12 -15 -26 0 c-14 0 -26 -5 -26
-11 l0 -10 83 5 c45 3 103 8 130 11 l47 7 0 -12 0 -12 -21 5 -21 6 -6 -22 c-8
-29 -5 -33 23 -29 12 2 26 -2 30 -7 3 -6 15 -11 27 -11 l20 0 -11 14 c-15 18
-3 25 29 15 14 -4 21 -8 15 -8 -13 -2 16 -21 31 -21 7 0 15 10 19 23 l6 22 6
-12 c7 -18 33 -16 33 2 0 8 -4 15 -10 15 -5 0 -10 7 -10 16 l0 15 -10 -6 c-6
-4 -8 -11 -5 -16 4 -5 -1 -9 -9 -9 -9 0 -16 4 -16 10 0 5 -7 7 -16 3 l-16 -6
10 -6 c5 -3 -22 -7 -62 -7 l-71 -2 33 9 c39 11 41 25 6 33 -15 4 -24 10 -21
13 4 3 19 0 35 -6 31 -13 89 -18 98 -8 7 7 -17 126 -27 133 -5 2 -11 -8 -15
-23 -10 -49 -13 -53 -34 -53 l-21 0 6 -10 c3 -5 16 -10 29 -10 12 0 31 -7 42
-15 l19 -14 -22 -1 c-13 0 -23 5 -23 11 0 5 -5 7 -10 4 -6 -4 -22 0 -35 9 -13
9 -41 16 -62 16 l-37 0 12 -12 c7 -7 12 -16 12 -21 0 -5 -7 -1 -16 7 -8 9 -30
16 -47 16 -18 0 -43 7 -55 16 l-22 15 0 75 c0 79 11 114 36 114 l14 0 -5 23
-6 22 98 -2 c54 -1 101 -3 106 -3 4 0 7 -5 7 -11 l0 -11 -15 5 c-8 4 -17 1
-21 -5 l-7 -11 11 7 c6 3 13 2 17 -4 15 -25 75 8 75 42 l0 11 -20 -18 c-23
-21 -39 -13 -20 10 l12 15 -122 0 -122 0 -5 19 -5 20 -14 -6 -15 -6 -14 19
-14 19 -1 -17 c0 -10 5 -18 10 -18 6 0 10 -7 10 -16 l0 -15 12 7 11 7 -7 -12
-8 -12 -13 11 c-8 7 -19 9 -25 5 -7 -4 -61 -7 -122 -6 l-110 2 7 -10 6 -11
-25 -12 c-30 -13 -44 -5 -27 16 l12 14 -20 7 -21 6 0 115 0 114 -15 0 -15 0 0
-79z m390 -471 c0 -21 -16 -35 -24 -22 -8 13 5 53 15 46 5 -3 9 -14 9 -24z" />
    <path d="M962 1708 c-13 -13 -16 -38 -6 -38 8 0 33 32 34 43 0 11 -15 8 -28
-5z" />
    <path d="M801 1683 l4 -32 -24 -25 c-13 -13 -20 -29 -16 -35 3 -6 1 -11 -4
-11 -16 0 -13 26 4 40 8 7 15 19 15 26 0 17 -20 19 -21 2 0 -7 -4 -4 -9 7 l-8
20 -7 -17 c-3 -9 -5 -31 -3 -50 l3 -33 20 -3 20 -3 14 33 15 32 4 -13 c2 -7
-1 -17 -8 -21 l-13 -8 8 -12 8 -13 10 19 c6 11 12 38 13 61 l3 41 -15 13 -16
13 3 -31z" />
    <path d="M1230 1710 c-7 -19 -6 -88 2 -104 l10 -19 -13 -8 c-7 -4 -10 -11 -6
-15 3 -4 13 -2 20 4 8 7 17 9 20 5 4 -3 7 1 7 11 l0 17 -11 -7 -11 -7 7 23 7
23 -12 -8 -12 -8 6 19 c5 16 -9 88 -14 74z" />
    <path d="M510 1568 c0 -23 3 -38 7 -34 4 3 13 -6 20 -21 l13 -28 -6 45 c-11
80 -34 106 -34 38z" />
    <path d="M835 1570 c4 -6 1 -10 -5 -10 l-11 0 6 -21 7 -22 -9 6 -9 6 -1 -34
-1 -34 14 -12 c8 -6 14 -16 14 -22 0 -6 -3 -7 -7 -4 -3 4 -11 3 -17 -2 -16
-13 -49 -17 -64 -7 l-13 8 -13 -17 -12 -17 -13 16 c-13 16 -31 13 -31 -5 0 -6
4 -8 9 -5 15 10 21 -22 7 -36 -7 -8 -15 -25 -19 -38 -3 -14 -8 -36 -12 -50
l-7 -25 21 23 c11 13 25 21 31 17 l10 -6 0 15 0 15 -17 -6 -16 -6 6 17 c4 10
7 22 7 28 0 6 7 8 14 5 l15 -6 6 20 c9 28 22 23 30 -10 l6 -30 29 1 30 1 6 19
c3 10 0 25 -6 33 l-12 14 21 13 c22 14 27 38 11 54 l-9 9 6 38 c3 20 9 34 14
31 l9 -5 -7 17 -6 16 21 -7 22 -6 0 13 0 13 -30 2 -31 2 6 -9z" />
    <path d="M2388 1542 c-3 -20 -1 -38 4 -40 4 -2 8 -18 9 -35 l0 -32 9 23 c5 12
12 22 15 22 4 0 3 -6 -1 -12 l-7 -13 10 10 c6 6 14 31 17 57 l7 48 -16 -6 -17
-7 5 -18 5 -18 -15 -5 c-23 -9 -28 -7 -15 6 14 14 16 44 3 52 -5 3 -11 -11
-13 -32z" />
    <path d="M2344 1534 l2 -38 12 -4 12 -4 0 -34 0 -34 11 0 11 0 -6 -15 c-3 -8
-9 -22 -12 -30 l-6 -15 16 0 17 0 -11 -21 c-7 -11 -9 -28 -5 -36 l6 -16 8 9
c5 5 12 37 16 72 l7 62 -14 -5 -15 -6 -12 54 c-6 29 -9 62 -5 72 l7 18 -12 -8
-13 -8 -8 12 -7 12 1 -37z" />
    <path d="M1262 1551 c-7 -4 -20 -20 -27 -34 l-14 -27 10 0 c5 0 9 5 9 11 l0
11 15 -12 c17 -14 35 -5 35 16 0 8 -4 13 -9 10 l-9 -6 5 20 c6 22 4 24 -15 11z" />
    <path d="M1307 1504 c-3 -4 -2 -15 4 -25 5 -11 6 -19 1 -19 -12 0 -14 -67 -2
-75 5 -3 10 -15 10 -26 0 -10 6 -19 13 -19 l12 0 -14 -9 -13 -9 7 -43 8 -44
-17 14 c-9 7 -16 12 -17 10 -8 -36 -8 -59 1 -64 5 -3 10 -15 10 -26 l0 -20 16
16 16 16 14 -12 14 -11 0 11 c0 7 5 9 10 6 l10 -6 0 20 c0 26 -8 27 -27 4
l-14 -18 6 22 6 21 -11 7 c-5 3 -10 11 -10 16 0 6 4 7 10 4 l10 -6 -2 25 c-1
13 -6 22 -11 19 l-9 -6 6 21 c6 18 0 54 -20 125 l-5 17 20 0 c11 0 23 5 27 12
l7 11 -14 -7 c-8 -4 -6 -1 4 7 9 8 17 20 17 28 l0 13 12 -12 12 -12 72 0 72 0
6 15 5 15 -89 0 -89 0 -14 -15 c-8 -8 -18 -11 -22 -7 -4 4 -5 3 -3 -3 3 -9 -4
-15 -17 -15 -3 0 -1 9 5 20 l11 20 -14 0 c-8 0 -17 -3 -20 -6z" />
    <path d="M500 1464 l0 -35 10 6 10 6 0 -17 c0 -10 3 -15 6 -11 9 9 -6 87 -17
87 -5 0 -9 -16 -9 -36z" />
    <path d="M1174 1466 l0 -34 23 3 23 2 1 -21 0 -21 11 22 10 21 -16 23 -16 23
0 -19 0 -20 -10 15 -9 14 11 13 10 13 -19 0 -19 0 0 -34z" />
    <path d="M2283 1400 l5 -40 -11 7 -10 6 6 -24 c4 -13 7 -27 7 -31 0 -5 5 -8
10 -8 l10 0 0 65 0 65 -11 0 -12 0 6 -40z" />
    <path d="M1183 1388 c3 -13 12 -40 20 -62 l14 -38 8 11 c3 7 2 18 -4 25 -6 7
-8 16 -4 19 3 4 2 7 -3 7 -6 0 -9 14 -8 30 l2 30 -15 0 -15 0 5 -22z" />
    <path d="M163 1363 c-21 -4 -28 -14 -24 -36 1 -5 -3 -6 -9 -2 -6 3 -8 11 -5
16 4 5 -1 9 -9 9 l-16 0 3 -22 2 -23 -17 3 -18 3 0 -16 c0 -8 5 -15 10 -15 6
0 10 -5 10 -11 l0 -11 -15 6 -15 5 0 -19 0 -20 20 12 c11 7 23 21 26 31 3 10
19 26 35 36 16 10 26 21 22 24 -3 4 1 7 10 7 9 0 19 -4 22 -10 11 -18 22 -11
20 13 l-2 22 -14 1 c-8 1 -24 -1 -36 -3z" />
    <path d="M902 1314 c-1 -14 3 -34 8 -45 l11 -19 -12 0 -11 0 4 -25 c3 -14 1
-25 -4 -25 l-9 0 6 -20 c7 -22 -5 -26 -22 -9 -6 6 -16 8 -22 4 -19 -11 -1 -25
34 -25 l34 0 3 38 3 37 13 -3 13 -2 -3 37 -3 38 -12 -2 -13 -3 0 19 c0 30 -15
33 -18 5z" />
    <path d="M243 1301 c1 -16 5 -27 10 -24 4 2 7 -1 7 -6 0 -6 -4 -11 -10 -11 -5
0 -10 -5 -10 -11 0 -6 6 -9 13 -6 16 6 69 -32 61 -44 l-6 -10 -21 25 -22 24
-10 -11 c-13 -16 -16 -67 -4 -67 5 0 9 10 9 22 l0 21 19 -17 20 -18 25 19 c31
22 32 29 7 42 -10 6 -26 27 -36 46 l-17 37 -15 -6 -15 -6 6 15 c3 8 1 15 -4
15 -5 0 -8 -13 -7 -29z" />
    <path d="M470 1289 l0 -30 -11 6 -11 7 -15 -22 c-9 -12 -29 -28 -46 -35 l-30
-13 21 -11 21 -11 26 26 c28 28 40 28 29 0 l-7 -17 -13 5 -14 5 0 -19 c0 -27
14 -25 45 6 l26 26 -5 14 c-3 8 0 14 6 14 l10 0 -12 15 -12 15 11 0 c17 0 13
37 -4 44 l-15 5 0 -30z" />
    <path d="M815 1300 c-4 -6 -11 -7 -17 -4 l-10 7 7 -54 c8 -61 11 -67 26 -52
l11 11 -12 7 -11 7 12 14 11 14 -18 0 -19 0 11 8 c6 4 14 17 18 30 8 23 2 30
-9 12z" />
    <path d="M652 1219 c1 -13 8 -23 13 -21 15 3 12 35 -3 40 l-14 4 4 -23z" />
    <path d="M1890 1200 c-14 -4 -20 -9 -15 -10 6 -1 -3 -8 -20 -15 -16 -8 -23
-14 -14 -15 16 0 99 37 99 45 0 7 -20 5 -50 -5z" />
    <path d="M1767 1184 c-4 -4 -4 -11 -1 -15 8 -14 31 -10 38 6 l5 15 -18 0 c-10
0 -21 -3 -24 -6z" />
    <path d="M1254 1164 c3 -9 6 -20 6 -25 0 -4 7 -6 15 -3 8 4 15 2 15 -4 0 -6
-4 -12 -9 -14 -5 -1 -11 -21 -13 -43 l-3 -40 10 -3 c6 -2 15 4 20 13 l10 16
-14 8 c-18 11 -5 32 15 24 l16 -6 -17 32 c-9 18 -14 38 -12 45 l5 12 -25 2
-25 2 6 -16z" />
    <path d="M1675 1170 c3 -5 19 -10 35 -10 16 0 32 5 35 10 l6 10 -41 0 -41 0 6
-10z" />
    <path d="M136 1131 l2 -39 33 -36 32 -36 24 0 c27 0 30 15 6 29 l-18 10 18 1
17 0 0 15 c0 18 -5 19 -29 3 l-18 -11 -24 17 c-13 9 -22 19 -20 21 6 9 -8 65
-16 65 -5 0 -7 -18 -7 -39z" />
    <path d="M575 1119 l2 -52 -19 -4 c-10 -3 -18 -9 -18 -14 0 -5 -11 -9 -24 -9
-14 0 -27 -4 -31 -9 -8 -13 12 -24 28 -14 6 4 17 8 22 8 20 2 45 17 45 27 0 6
8 16 17 23 l17 13 -12 15 -13 15 18 7 c10 5 21 7 26 7 4 -1 7 5 7 14 l0 15 13
-7 12 -7 -11 12 -11 12 -16 -7 c-9 -3 -17 -10 -17 -15 0 -5 -4 -9 -10 -9 -5 0
-9 5 -7 11 1 6 -3 13 -9 16 l-11 4 2 -52z" />
    <path d="M1535 1150 c4 -6 11 -7 17 -4 l11 7 -7 -11 c-4 -7 -18 -12 -32 -12
l-25 0 6 10 6 10 -36 0 -36 0 7 -11 7 -11 -22 7 -21 6 0 -15 c0 -8 -8 -20 -17
-25 -10 -6 -16 -11 -13 -11 3 -1 13 -3 23 -5 l17 -3 -6 10 -7 10 22 -7 21 -6
1 13 c0 7 5 0 11 -16 l10 -28 42 7 c61 12 246 14 272 4 l23 -8 -6 15 -6 16
-88 -4 c-82 -3 -111 4 -75 18 l15 6 -6 14 c-7 18 -23 18 -23 0 0 -13 -20 -26
-41 -26 l-10 0 10 18 10 18 -20 12 c-23 15 -42 16 -34 2z m-55 -19 c0 -5 18
-12 40 -16 60 -10 34 -35 -37 -35 l-15 0 13 17 c8 9 9 14 3 10 l-12 -7 -5 20
c-3 11 -1 20 4 20 5 0 9 -4 9 -9z" />
    <path d="M506 1074 c-8 -22 -8 -24 7 -24 8 0 22 9 32 20 l18 20 -25 0 -26 0
-6 -16z" />
    <path d="M1835 1069 c-11 -16 1 -22 30 -15 l26 7 -6 9 c-8 13 -42 13 -50 -1z" />
    <path d="M1560 1060 c0 -5 8 -10 17 -10 9 0 13 -3 10 -7 -4 -3 -33 -6 -65 -6
-31 1 -49 -1 -39 -4 9 -2 15 -9 12 -14 l-6 -9 23 0 c43 0 98 13 92 21 l-5 8
52 -6 52 -6 -7 12 -7 11 43 -6 43 -6 -16 17 -16 17 -41 -12 c-23 -6 -53 -8
-67 -5 -14 3 -36 7 -50 10 l-25 5 0 -10z" />
    <path d="M1247 1023 c-3 -5 -4 -34 -4 -65 l0 -57 10 2 c5 1 13 -10 17 -25 9
-30 32 -58 49 -58 6 0 20 -5 31 -12 l19 -12 22 23 21 23 -16 16 -16 16 -12
-12 -12 -12 18 0 17 0 -6 -10 c-3 -5 -15 -10 -26 -10 -11 0 -18 4 -15 8 2 4
-9 14 -25 21 l-29 13 1 21 0 22 11 -22 c12 -25 29 -29 56 -14 10 5 30 7 46 4
l28 -6 -14 -8 -13 -9 23 0 c12 0 25 -7 28 -15 l6 -15 24 0 c13 0 24 -4 24 -10
l0 -10 52 0 52 0 -14 14 c-8 8 -26 17 -40 21 l-25 6 15 -10 15 -11 -23 0 -23
0 6 10 6 10 -33 -5 -33 -5 30 14 c17 9 38 15 48 16 9 0 17 5 17 11 l0 11 -17
-7 c-10 -4 -38 -10 -63 -12 l-45 -6 8 9 c5 5 23 9 40 10 17 1 33 6 34 11 2 6
14 8 27 6 13 -3 27 0 30 6 l7 10 -100 -6 -100 -6 -16 13 c-9 7 -21 22 -27 33
l-10 19 10 -6 c11 -7 25 21 17 35 -3 4 -15 -1 -26 -12 -11 -11 -17 -24 -14
-29 4 -6 1 -10 -4 -10 -6 0 -11 11 -11 24 l0 25 18 3 17 4 -16 6 c-21 8 -35
-2 -44 -31 l-7 -24 10 7 10 6 5 -27 5 -28 -13 18 -13 18 -11 -18 -11 -18 5 28
c3 15 7 38 10 51 5 24 -9 45 -18 29z" />
    <path d="M451 999 c-13 -5 -21 -12 -18 -15 9 -9 57 5 57 16 0 12 -7 12 -39 -1z" />
    <path d="M383 990 c-31 -13 -29 -20 5 -20 l29 0 0 15 c0 17 -3 17 -34 5z" />
    <path d="M1951 941 c-7 -5 -23 -6 -35 -3 l-21 5 10 -10 c6 -6 23 -13 39 -17
l29 -7 -7 16 c-3 9 -2 14 2 11 5 -3 19 -7 33 -10 13 -2 38 -7 54 -11 l30 -7
-15 11 -15 11 38 0 37 0 0 -15 0 -15 83 0 82 0 -14 -9 -14 -9 19 -5 19 -5 -22
-1 c-41 -2 -32 -17 10 -17 l42 1 0 17 c0 9 4 20 8 24 11 11 8 34 -4 34 l-11 0
5 -14 6 -15 -15 6 -15 6 10 10 c6 6 11 14 11 17 0 9 -364 10 -379 1z" />
    <path d="M1685 920 c3 -5 19 -10 35 -10 16 0 32 5 35 10 l6 10 -41 0 -41 0 6
-10z" />
    <path d="M2050 876 c0 -7 9 -16 20 -19 l20 -5 -6 9 -5 9 26 0 c14 0 24 -3 22
-7 -3 -5 9 -9 26 -10 l32 -2 -19 14 -18 14 58 4 59 3 -107 2 -108 2 0 -14z" />
    <path d="M1675 842 c-16 -2 -34 -8 -39 -13 l-10 -9 57 0 c31 0 57 2 57 5 0 10
-37 20 -65 17z" />
    <path d="M1760 840 c0 -5 14 -10 31 -10 l30 0 -6 10 c-3 6 -17 10 -31 10 -13
0 -24 -4 -24 -10z" />
    <path d="M1405 810 l-6 -10 36 0 36 0 -6 10 c-3 6 -17 10 -30 10 -13 0 -27 -4
-30 -10z" />
    <path d="M1266 715 l-18 -14 8 -12 7 -12 -11 7 -12 7 0 -10 c0 -6 9 -11 20
-11 l19 0 -6 18 -6 17 16 -20 17 -20 8 13 9 14 23 -14 23 -13 4 13 c3 6 9 12
15 12 l10 0 -5 -32 -5 -33 16 -17 15 -18 -11 0 c-7 0 -12 -4 -12 -10 0 -5 7
-7 15 -4 l15 6 0 -11 c0 -6 -8 -11 -17 -11 l-18 0 13 -9 13 -8 -6 -25 -7 -26
11 -6 11 -7 0 13 0 13 9 -14 c11 -17 31 -6 31 16 0 9 7 25 17 35 l16 18 -11
25 -12 25 -24 0 -25 0 -11 20 -11 20 11 20 11 20 -12 0 -11 0 6 15 5 15 -16 0
c-9 0 -21 -7 -28 -17 l-12 -16 -19 8 c-10 4 -26 7 -33 6 l-15 -3 13 16 13 16
-13 0 c-8 0 -22 -7 -33 -15z" />
    <path d="M2220 715 c7 -8 11 -15 9 -16 -25 -5 -56 -5 -64 1 -5 4 -21 11 -35
15 l-25 8 14 -17 c7 -9 20 -16 27 -16 8 0 14 -4 14 -10 0 -14 27 -12 33 3 l5
12 10 -14 10 -15 18 15 18 14 -8 -12 -7 -13 20 0 21 0 0 14 c0 17 -37 46 -58
46 l-14 0 12 -15z" />
    <path d="M1432 668 l3 -33 23 -3 22 -3 0 15 c0 9 -4 16 -9 16 -5 0 -13 9 -16
20 -3 11 -11 20 -16 20 l-10 0 3 -32z" />
    <path d="M2104 689 l-8 -13 12 -4 c7 -2 12 -12 12 -23 0 -21 -44 -54 -60 -44
-16 10 -12 22 10 28 11 3 20 12 20 20 0 25 -16 28 -35 7 l-17 -19 4 -35 c2
-19 0 -32 -4 -30 -9 6 -11 -20 -2 -29 11 -11 34 5 34 24 0 23 23 25 40 4 l13
-16 8 13 8 12 -11 13 -10 13 11 0 12 0 -7 38 c-3 20 -10 41 -14 45 l-8 9 -8
-13z" />
    <path d="M2293 543 c11 -10 -13 -32 -29 -26 -8 3 -21 0 -28 -6 l-14 -12 -4 12
-4 13 -20 -8 -19 -8 13 -5 c26 -10 10 -23 -28 -23 -42 0 -55 16 -17 22 l22 4
-30 15 c-16 9 -36 14 -43 12 l-13 -5 16 -24 15 -23 -15 5 c-8 4 -15 1 -15 -4
0 -15 36 -25 61 -17 l22 7 -7 -11 -7 -11 26 0 26 0 -7 11 -7 12 25 -6 26 -7
-2 17 -1 18 27 0 c31 1 33 2 42 33 l7 22 -12 0 c-7 0 -9 -3 -6 -7z" />
    <path d="M1260 510 c0 -6 10 -14 22 -19 l23 -8 17 11 c10 6 18 14 18 18 0 13
-28 9 -33 -4 l-4 -13 -14 13 c-16 15 -29 16 -29 2z" />
    <path d="M1360 481 c-14 -3 -26 -12 -27 -18 l-3 -13 26 0 c14 0 23 4 20 9 l-5
8 27 -5 27 -5 -14 16 c-7 10 -16 16 -20 16 -3 -1 -17 -4 -31 -8z" />
  </g>
  <g transform="translate(0.000000,256.000000) scale(0.100000,-0.100000)" fill="#0349a6" stroke="none">
    <path d="M756 2098 c-8 -32 -7 -38 4 -38 6 0 10 7 10 16 0 8 4 13 9 10 l9 -6
-5 20 c-7 27 -19 25 -27 -2z" />
    <path d="M1113 2075 c0 -14 3 -25 7 -25 4 0 10 -10 13 -22 4 -12 9 -19 12 -16
8 8 -16 88 -25 88 -4 0 -7 -11 -7 -25z" />
    <path d="M785 2041 c-3 -5 2 -17 11 -25 l15 -16 100 0 99 0 0 10 0 10 -94 0
c-98 0 -130 6 -120 21 3 5 3 9 0 9 -3 0 -7 -4 -11 -9z" />
    <path d="M520 1874 c-13 -32 -13 -84 -1 -84 6 0 11 19 13 43 l3 42 12 -2 12
-3 -5 15 c-9 23 -23 18 -34 -11z" />
    <path d="M1035 1873 c7 -30 13 -39 19 -32 8 8 -6 59 -16 59 l-10 0 7 -27z" />
    <path d="M1176 1885 c4 -8 12 -15 19 -15 7 0 15 7 19 15 l5 15 -24 0 -24 0 5
-15z" />
    <path d="M1235 1890 l6 -10 574 0 574 0 6 10 6 10 -586 0 -586 0 6 -10z" />
    <path d="M2414 1892 c4 -7 13 -12 20 -12 7 0 21 -7 32 -16 10 -8 13 -13 7 -9
-7 3 -13 1 -13 -4 0 -17 20 -13 27 5 8 21 -6 32 -46 40 l-34 7 7 -11z" />
    <path d="M700 1845 c7 -9 15 -13 18 -10 3 3 11 0 19 -6 l13 -11 0 15 c0 8 -10
17 -22 21 -36 9 -41 7 -28 -9z" />
    <path d="M880 1820 c-13 -11 -20 -23 -17 -26 3 -4 13 1 22 10 9 9 25 16 36 16
10 0 19 5 19 10 0 17 -36 11 -60 -10z" />
    <path d="M1652 1767 c-15 -41 -15 -47 -2 -47 6 0 10 7 10 15 0 8 5 15 11 15 5
0 7 5 4 10 -4 6 -1 17 5 25 l12 15 -14 0 c-8 0 -19 -15 -26 -33z" />
    <path d="M510 1695 l0 -85 10 0 10 0 0 85 0 85 -10 0 -10 0 0 -85z" />
    <path d="M1920 1765 l-12 -15 24 0 25 0 0 15 c0 8 -6 15 -12 15 -7 0 -18 -7
-25 -15z" />
    <path d="M2313 1764 c0 -7 6 -14 13 -14 l14 0 -6 -30 c-7 -34 -3 -37 20 -14
20 20 20 27 -1 50 -22 24 -40 27 -40 8z" />
    <path d="M830 1755 c0 -8 -4 -15 -10 -15 -5 0 -10 -5 -10 -11 0 -6 -7 -17 -15
-26 -17 -16 -17 -48 0 -48 5 0 11 9 13 20 5 32 24 65 38 65 l13 0 -5 15 c-4 8
-10 15 -15 15 -5 0 -9 -7 -9 -15z" />
    <path d="M2010 1640 l0 -110 10 0 10 0 0 110 0 110 -10 0 -10 0 0 -110z" />
    <path d="M1226 1705 c3 -14 7 -36 8 -49 0 -13 4 -22 7 -20 4 2 9 -6 12 -18 4
-12 9 -19 12 -16 9 9 -26 128 -37 128 l-8 0 6 -25z" />
    <path d="M2327 1674 c-11 -11 -8 -44 3 -44 15 0 24 30 13 41 -5 5 -12 6 -16 3z" />
    <path d="M937 1654 c2 -6 0 -15 -6 -19 -14 -8 -14 -25 -1 -25 6 0 10 7 10 15
0 8 5 15 10 15 6 0 10 6 10 13 0 8 -6 14 -14 14 -8 0 -12 -6 -9 -13z" />
    <path d="M1264 1573 c3 -10 8 -30 12 -45 5 -24 24 -40 24 -22 0 20 -25 84 -32
84 -5 0 -7 -8 -4 -17z" />
    <path d="M1144 1504 c10 -37 36 -47 36 -13 0 6 -4 7 -10 4 -5 -3 -10 1 -10 9
0 8 -5 18 -11 22 l-12 7 7 -29z" />
    <path d="M1695 1500 c3 -5 1 -10 -6 -10 l-13 0 19 -13 18 -14 -7 -11 -7 -12
20 0 c25 0 26 6 5 27 -8 9 -13 22 -10 29 l5 14 -15 0 c-8 0 -12 -4 -9 -10z" />
    <path d="M1652 1450 c-15 -24 -16 -50 -2 -50 6 0 10 9 10 19 0 11 6 21 13 24
l12 5 -10 11 -11 11 -12 -20z" />
    <path d="M1995 1446 l17 -25 -4 -101 -3 -100 13 -5 14 -5 -4 115 -3 115 13 0
c7 0 10 5 7 10 -4 6 -10 8 -15 5 -5 -3 -19 -1 -31 5 l-20 11 16 -25z" />
    <path d="M2265 1460 l-9 -14 12 -4 11 -3 -6 -36 -6 -36 10 6 c6 4 13 20 15 37
l5 31 -12 16 -12 16 -8 -13z" />
    <path d="M704 1398 l-7 -11 9 6 c6 3 19 -8 29 -24 26 -37 33 -37 31 3 l-2 32
-13 4 -14 5 8 -13 7 -12 -20 11 -21 11 -7 -12z" />
    <path d="M1180 1383 c0 -3 8 -30 17 -60 17 -54 39 -75 27 -25 -14 54 -44 113
-44 85z" />
    <path d="M770 1374 c0 -5 6 -16 12 -22 l13 -13 -13 -8 -13 -8 7 -26 c3 -15 10
-27 15 -27 l9 0 -4 46 c-2 25 -9 51 -15 57 l-11 11 0 -10z" />
    <path d="M913 1342 l0 -29 14 0 c14 0 17 16 7 41 -10 25 -21 19 -21 -12z" />
    <path d="M461 1309 c-14 -41 -14 -46 4 -46 l15 0 0 23 c0 12 3 29 6 38 l6 16
-10 0 c-6 0 -15 -14 -21 -31z" />
    <path d="M1336 1304 l-6 -15 10 6 c10 6 14 -6 11 -37 -1 -10 3 -18 8 -18 6 0
11 11 11 24 0 48 -21 73 -34 40z" />
    <path d="M280 1273 c1 -10 30 -45 53 -62 l17 -13 0 16 c0 9 -5 16 -11 16 -6 0
-17 6 -25 14 -8 8 -14 19 -14 25 0 6 -4 11 -10 11 -5 0 -10 -3 -10 -7z" />
    <path d="M1225 1233 c7 -30 13 -39 19 -32 8 8 -6 59 -16 59 l-10 0 7 -27z" />
    <path d="M1640 1201 l0 -29 15 -5 c8 -4 17 -2 20 3 4 6 1 10 -4 10 -6 0 -11
11 -11 25 0 14 -4 25 -10 25 -5 0 -10 -13 -10 -29z" />
    <path d="M935 1191 c-3 -6 -11 -9 -16 -6 -5 4 -9 -1 -9 -9 0 -21 29 -21 37 -1
7 19 -2 31 -12 16z" />
    <path d="M1240 1185 c0 -17 24 -85 29 -85 4 0 6 18 6 39 0 22 -1 38 -4 35 -2
-2 -10 1 -18 7 -7 6 -13 8 -13 4z" />
    <path d="M630 1135 c0 -6 -5 -16 -12 -23 l-12 -12 -13 11 -13 11 0 -11 c0 -6
5 -11 12 -11 l11 0 -18 -20 -18 -20 16 0 c10 0 17 7 17 14 0 8 12 21 27 28 15
7 29 20 31 29 l3 16 -16 0 c-8 0 -15 -5 -15 -12z" />
    <path d="M1400 1135 c7 -8 16 -13 20 -10 5 3 11 1 15 -5 3 -5 12 -10 18 -10
16 1 -35 40 -52 40 l-13 0 12 -15z" />
    <path d="M2122 1099 l-12 -19 17 0 c10 0 24 4 32 9 l14 9 -20 10 -19 11 -12
-20z" />
    <path d="M140 1086 c0 -15 36 -46 53 -46 l12 1 -19 14 c-10 7 -15 18 -12 23 3
5 -3 12 -14 15 l-20 5 0 -12z" />
    <path d="M2015 1080 l-6 -10 30 0 c17 0 31 5 31 10 0 6 -11 10 -24 10 -14 0
-28 -4 -31 -10z" />
    <path d="M542 1048 l3 -13 -16 3 c-18 2 -46 -25 -36 -34 9 -9 39 4 33 14 -3 5
5 8 17 8 l22 -1 0 14 c0 8 -6 16 -13 19 l-13 4 3 -14z" />
    <path d="M1246 1034 c-10 -38 0 -41 19 -5 l16 31 -15 0 c-7 0 -17 -12 -20 -26z" />
    <path d="M210 1021 c0 -9 23 -21 41 -21 4 0 6 7 3 15 -7 16 -44 21 -44 6z" />
    <path d="M413 983 c0 -14 11 -16 45 -7 33 9 27 21 -11 20 l-34 -1 0 -12z" />
    <path d="M1335 957 l-8 -19 21 -21 c12 -11 25 -17 29 -13 4 4 1 13 -8 20 -9 6
-19 20 -21 31 l-5 20 -8 -18z" />
    <path d="M2050 951 c0 -5 11 -11 25 -13 l25 -5 0 13 0 14 -25 0 c-14 0 -25 -4
-25 -9z" />
    <path d="M2245 950 c3 -5 17 -10 31 -10 13 0 24 5 24 10 0 6 -14 10 -31 10
l-30 0 6 -10z" />
    <path d="M1234 919 c3 -19 13 -39 21 -45 8 -6 15 -16 15 -23 0 -13 36 -15 45
-2 3 5 1 12 -4 15 -5 4 -12 0 -14 -6 -3 -7 -8 2 -12 20 l-8 33 -13 -5 -14 -5
0 19 c0 10 -5 22 -12 26 l-11 7 7 -34z" />
    <path d="M1830 940 l0 -11 65 2 c36 1 68 6 71 10 l5 9 -70 0 -71 0 0 -10z" />
    <path d="M1710 930 c0 -5 13 -10 29 -10 17 0 33 5 36 10 l6 10 -35 0 c-20 0
-36 -4 -36 -10z" />
    <path d="M1570 920 c0 -5 13 -10 29 -10 17 0 33 5 36 10 l6 10 -35 0 c-20 0
-36 -4 -36 -10z" />
    <path d="M2323 895 c-27 -11 -31 -30 -5 -21 l17 6 -25 -20 -25 -20 15 1 c16 0
54 45 48 57 -2 4 -13 3 -25 -3z" />
    <path d="M2074 849 l-5 -9 106 0 106 0 -6 10 -6 10 -95 -1 c-52 -1 -97 -6
-100 -10z" />
    <path d="M1905 840 l-6 -10 35 0 c20 0 36 5 36 10 0 6 -13 10 -29 10 -17 0
-33 -4 -36 -10z" />
    <path d="M1760 830 c0 -5 14 -10 30 -10 17 0 30 5 30 10 0 6 -13 10 -30 10
-16 0 -30 -4 -30 -10z" />
    <path d="M1615 820 l-6 -10 35 0 c20 0 36 5 36 10 0 6 -13 10 -29 10 -17 0
-33 -4 -36 -10z" />
    <path d="M2236 701 l-20 -8 11 -6 c7 -4 15 -2 19 4 l7 11 28 -33 29 -34 0 18
c0 9 -4 17 -9 17 -5 0 -13 9 -16 20 -7 21 -18 23 -49 11z" />
    <path d="M2274 507 c-17 -18 -40 -37 -50 -44 l-19 -12 17 0 c20 -1 91 64 86
78 -1 6 -17 -4 -34 -22z" />
  </g>
  <g transform="translate(0.000000,256.000000) scale(0.100000,-0.100000)" fill="#0447ac" stroke="none">
    <path d="M780 2074 l0 -15 -10 6 c-11 7 -13 -6 -4 -29 3 -9 13 -16 21 -16 l15
0 -10 13 c-6 7 -9 23 -5 35 3 12 3 22 -1 22 -3 0 -6 -7 -6 -16z" />
    <path d="M1060 1795 c0 -16 34 -125 39 -125 3 0 6 26 7 58 l1 57 -7 -25 -6
-25 -12 33 c-9 28 -22 43 -22 27z" />
    <path d="M1645 1730 c-3 -5 -5 -54 -4 -110 l1 -100 9 0 9 0 0 110 c0 106 -2
121 -15 100z" />
    <path d="M964 1695 c-20 -30 -10 -47 11 -19 14 18 20 44 10 44 -2 0 -12 -11
-21 -25z" />
    <path d="M757 1659 c-25 -29 -14 -36 17 -11 14 10 22 22 19 26 -10 10 -18 7
-36 -15z" />
    <path d="M2300 1540 c0 -16 -5 -30 -11 -30 -5 0 -7 -5 -4 -11 l7 -10 12 18
c15 22 18 63 5 63 -5 0 -9 -13 -9 -30z" />
    <path d="M2007 1516 c-3 -8 1 -22 8 -33 8 -10 15 -13 15 -7 0 5 -6 16 -12 23
l-13 12 19 -7 19 -7 -5 13 c-6 20 -25 23 -31 6z" />
    <path d="M1939 1460 c-13 -10 -19 -19 -12 -20 6 0 19 -3 28 -7 l17 -6 -6 21
-7 22 15 -6 16 -6 0 11 c0 17 -25 13 -51 -9z" />
    <path d="M1161 1450 c0 -8 6 -26 13 -39 l13 -24 7 12 7 11 -12 0 -11 0 12 15
c7 9 10 18 6 22 -3 3 -6 0 -6 -7 l0 -14 -15 20 -14 19 0 -15z" />
    <path d="M1364 1448 c-3 -4 40 -8 96 -8 l101 0 -6 11 -7 10 -90 -2 c-49 -2
-91 -6 -94 -11z" />
    <path d="M1725 1450 l-6 -10 96 0 96 0 -6 10 -6 10 -84 0 -84 0 -6 -10z" />
    <path d="M2045 1450 l-6 -10 91 0 91 0 -6 10 -6 10 -79 0 -79 0 -6 -10z" />
    <path d="M1647 1413 c-4 -3 -7 -48 -7 -99 l0 -93 10 -6 10 -6 0 105 c0 106 -1
112 -13 99z" />
    <path d="M726 1389 l-14 -21 -5 19 -4 18 -8 -19 -8 -18 14 -9 c20 -13 29 -11
29 5 0 8 7 22 16 30 8 9 11 16 5 16 -5 0 -16 -9 -25 -21z" />
    <path d="M143 1363 c-18 -2 -33 -8 -33 -13 0 -11 69 -10 76 1 2 5 11 6 19 2
l15 -5 0 11 c0 11 -14 12 -77 4z" />
    <path d="M416 1239 l-19 -19 -29 0 c-15 0 -28 -4 -28 -10 0 -18 57 -11 84 11
25 19 35 40 19 38 -5 0 -17 -9 -27 -20z" />
    <path d="M90 1158 c0 -19 18 -43 25 -36 9 9 -4 48 -16 48 -5 0 -9 -6 -9 -12z" />
    <path d="M2302 1143 l-13 -5 12 -14 c13 -16 49 -19 49 -3 l0 10 -20 -6 -20 -6
6 15 c7 17 6 17 -14 9z" />
    <path d="M2230 1108 c0 -4 16 -8 36 -8 l35 0 -6 9 c-7 12 -65 11 -65 -1z" />
    <path d="M490 1015 l-23 -25 15 0 c19 0 40 24 30 35 l-7 8 18 -6 18 -7 -6 10
c-10 15 -20 12 -45 -15z" />
    <path d="M2025 950 l7 -11 28 5 29 4 3 -10 4 -10 13 16 13 16 -51 0 -52 0 6
-10z" />
    <path d="M1271 897 l-1 -18 -10 6 c-5 3 -10 -1 -10 -9 0 -18 19 -31 29 -20 5
5 5 20 0 34 l-7 25 -1 -18z" />
    <path d="M1310 732 c0 -4 16 -8 35 -9 19 -1 35 3 35 8 0 5 -16 9 -35 9 -19 0
-35 -4 -35 -8z" />
    <path d="M2045 656 c-9 -14 -15 -33 -12 -43 l4 -18 8 20 c4 11 14 27 22 37
l14 16 -10 6 c-6 4 -17 -5 -26 -18z" />
    <path d="M2303 615 c-1 -19 3 -38 8 -41 l9 -5 0 40 c0 50 -16 55 -17 6z" />
  </g>
  <g transform="translate(0.000000,256.000000) scale(0.100000,-0.100000)" fill="#1250a5" stroke="none">
    <path d="M778 2136 c-10 -7 -18 -19 -18 -25 l0 -12 25 18 c24 18 32 33 18 33
-5 0 -16 -7 -25 -14z" />
    <path d="M1005 1963 c7 -30 13 -39 19 -32 8 8 -6 59 -16 59 l-10 0 7 -27z" />
    <path d="M600 1942 c0 -5 14 -9 30 -10 17 0 30 4 30 9 0 5 -13 9 -30 9 -16 0
-30 -4 -30 -8z" />
    <path d="M1580 1642 l0 -122 -139 0 -139 0 -5 13 c-2 6 -7 9 -11 6 -3 -3 -4
-14 0 -23 l6 -17 152 3 151 3 3 119 3 119 -11 11 -10 10 0 -122z" />
    <path d="M1950 1642 l0 -122 -152 0 -152 0 10 -10 11 -11 149 3 149 3 3 119 3
119 -11 11 -10 10 0 -122z" />
    <path d="M2025 1510 l6 -10 134 0 134 0 6 10 6 10 -146 0 -146 0 6 -10z" />
    <path d="M862 1459 l23 -30 4 12 c2 7 -1 15 -7 17 -7 2 -12 10 -12 18 0 8 -7
14 -15 14 l-16 0 23 -31z" />
    <path d="M1580 1305 l0 -146 10 6 10 6 0 134 0 134 -10 6 -10 6 0 -146z" />
    <path d="M1950 1325 l0 -126 10 6 10 6 0 114 0 114 -10 6 -10 6 0 -126z" />
    <path d="M1215 1253 c7 -30 13 -39 19 -32 8 8 -6 59 -16 59 l-10 0 7 -27z" />
    <path d="M1380 910 c0 -5 15 -10 34 -10 19 0 38 5 41 10 l6 10 -40 0 -41 0 0
-10z" />
    <path d="M1670 820 c0 -5 16 -10 35 -10 19 0 35 5 35 10 0 6 -16 10 -35 10
-19 0 -35 -4 -35 -10z" />
    <path d="M2213 463 c-13 -2 -23 -9 -23 -15 l0 -10 23 6 c12 3 25 6 30 6 4 0 7
5 7 10 0 6 -3 9 -7 9 -5 -1 -18 -4 -30 -6z" />
  </g>
  <g transform="translate(0.000000,256.000000) scale(0.100000,-0.100000)" fill="#094aa3" stroke="none">
    <path d="M1082 2136 c10 -7 25 -30 33 -51 19 -44 32 -40 17 5 -13 35 -35 60
-54 60 l-13 -1 17 -13z" />
    <path d="M540 1915 c-21 -25 -1 -31 23 -7 l21 22 -16 0 c-8 0 -21 -7 -28 -15z" />
    <path d="M700 1914 c0 -3 9 -18 19 -32 10 -15 19 -31 19 -35 0 -14 12 -22 12
-8 0 22 -29 81 -39 81 -6 0 -11 -3 -11 -6z" />
    <path d="M860 1815 c-6 -8 -10 -19 -8 -25 l3 -11 24 25 24 26 -15 0 c-9 0 -21
-7 -28 -15z" />
    <path d="M850 1536 l-23 -25 6 -15 c4 -9 11 -16 18 -16 6 0 9 6 6 14 l-6 14
20 18 c20 18 25 34 11 34 -5 0 -19 -11 -32 -24z" />
    <path d="M233 1339 c15 -12 37 -40 49 -63 12 -22 23 -36 25 -29 6 17 -34 91
-56 103 -34 18 -47 10 -18 -11z" />
    <path d="M74 1325 c-26 -40 -11 -48 19 -10 l28 35 -15 0 c-9 0 -23 -11 -32
-25z" />
    <path d="M1190 1346 c0 -23 24 -85 31 -80 4 2 3 19 -3 37 -11 32 -28 58 -28
43z" />
    <path d="M706 1309 c-3 -8 -14 -39 -26 -69 -23 -64 -23 -60 -11 -60 11 0 56
129 47 137 -3 3 -8 0 -10 -8z" />
    <path d="M444 1278 c-8 -26 -28 -48 -43 -48 -6 0 -11 -4 -11 -10 0 -23 35 -1
63 40 19 27 21 40 8 40 -5 0 -13 -10 -17 -22z" />
    <path d="M2040 1220 c0 -5 11 -10 24 -10 14 0 28 5 31 10 l6 10 -30 0 c-17 0
-31 -4 -31 -10z" />
    <path d="M472 998 c-24 -11 -41 -22 -38 -25 8 -8 96 27 96 38 0 12 -8 11 -58
-13z" />
    <path d="M1366 731 c5 -5 19 -12 32 -16 l22 -6 0 9 c0 11 -24 22 -48 22 l-16
0 10 -9z" />
    <path d="M2118 733 c-10 -2 -18 -9 -18 -14 0 -5 -6 -9 -14 -9 -16 0 -56 -59
-56 -81 l0 -14 20 25 c10 14 17 27 15 29 -7 6 69 60 77 55 3 -2 9 0 13 6 6 10
-6 11 -37 3z" />
    <path d="M2267 690 l28 -30 4 11 c4 12 -33 49 -49 49 -7 0 1 -14 17 -30z" />
    <path d="M1386 463 c-4 -4 -23 -6 -42 -4 l-34 3 0 -11 c0 -12 42 -14 78 -5 12
4 22 10 22 15 0 11 -14 12 -24 2z" />
    <path d="M2110 460 c0 -10 36 -20 75 -20 l29 0 -9 9 c-13 11 -95 21 -95 11z" />
  </g>
  <g transform="translate(0.000000,256.000000) scale(0.100000,-0.100000)" fill="#c2d1e6" stroke="none">
    <path d="M1578 1634 l3 -115 -145 3 c-80 2 -146 0 -146 -4 0 -5 68 -8 150 -8
l150 0 0 120 c0 66 -3 120 -7 120 -5 0 -7 -52 -5 -116z" />
    <path d="M1650 1518 c0 -5 70 -8 155 -8 85 0 155 3 155 8 0 4 -70 7 -155 7
-85 0 -155 -3 -155 -7z" />
    <path d="M2020 1518 c0 -5 63 -8 140 -8 77 0 140 3 140 8 0 4 -63 7 -140 7
-77 0 -140 -3 -140 -7z" />
    <path d="M1578 1310 l3 -140 -20 0 c-12 0 -21 -4 -21 -9 0 -4 11 -6 25 -3 l25
4 0 144 c0 79 -3 144 -7 144 -5 0 -7 -63 -5 -140z" />
  </g>
  <g transform="translate(0.000000,256.000000) scale(0.100000,-0.100000)" fill="#f1f4f8" stroke="none">
    <path d="M740 1705 l0 -56 17 3 c9 2 18 9 21 17 l5 14 -12 -7 -11 -7 0 40 c0
22 -4 43 -10 46 l-10 6 0 -56z" />
    <path d="M1660 1750 l0 -10 40 0 40 0 0 10 0 10 -40 0 -40 0 0 -10z" />
    <path d="M1860 1751 c0 -5 23 -11 50 -13 l50 -3 0 13 0 12 -50 0 c-27 0 -50
-4 -50 -9z" />
    <path d="M2280 1751 c0 -5 14 -11 30 -13 l30 -5 0 14 0 13 -30 0 c-16 0 -30
-4 -30 -9z" />
    <path d="M1345 970 c-7 -31 -1 -50 17 -50 l10 0 -12 15 -12 15 16 25 16 25
-14 0 -14 0 -7 -30z" />
    <path d="M2135 960 l-6 -10 81 0 81 0 -6 10 -6 10 -69 0 -69 0 -6 -10z" />
    <path d="M2070 840 c0 -5 13 -10 29 -10 17 0 33 5 36 10 l6 10 -35 0 c-20 0
-36 -4 -36 -10z" />
  </g>
  <g transform="translate(0.000000,256.000000) scale(0.100000,-0.100000)" fill="#e5ebf3" stroke="none">
    <path d="M1225 1749 c-4 -6 -4 -13 0 -17 4 -4 9 -2 11 3 l4 10 151 -3 152 -3
10 10 11 11 -166 0 -167 0 -6 -11z" />
    <path d="M1725 1750 l6 -10 69 0 69 0 6 10 6 10 -81 0 -81 0 6 -10z" />
    <path d="M2045 1749 l7 -10 134 2 c74 1 137 6 140 10 l5 9 -146 0 -146 0 6
-11z" />
    <path d="M1381 736 c17 -18 79 -54 79 -47 0 10 -61 51 -75 51 -5 0 -6 -2 -4
-4z" />
    <path d="M1480 595 l0 -36 10 6 c6 3 10 17 10 30 0 13 -4 27 -10 30 l-10 6 0
-36z" />
  </g>
  <g transform="translate(0.000000,256.000000) scale(0.100000,-0.100000)" fill="#2d63ac" stroke="none">
    <path d="M1226 1751 c-6 -9 10 -61 18 -61 3 0 1 14 -4 30 l-9 31 180 -3 c98
-2 179 0 179 5 0 4 -81 7 -179 7 l-180 0 -5 -9z" />
    <path d="M1657 1753 c-3 -5 64 -8 149 -8 85 0 154 3 154 8 0 4 -67 7 -149 7
-83 0 -152 -3 -154 -7z" />
    <path d="M2020 1753 c0 -5 68 -7 152 -5 l151 3 8 -13 c4 -7 11 -9 14 -6 4 4 4
11 0 17 l-6 11 -160 0 c-87 0 -159 -3 -159 -7z" />
    <path d="M2310 593 c0 -23 -3 -50 -6 -60 l-7 -18 10 10 c6 6 13 26 17 45 l6
35 -10 15 -10 15 0 -42z" />
  </g>
  <g transform="translate(0.000000,256.000000) scale(0.100000,-0.100000)" fill="#7296c6" stroke="none">
    <path d="M1753 1893 c86 -2 228 -2 315 0 86 1 15 3 -158 3 -173 0 -244 -2
-157 -3z" />
    <path d="M1654 1630 c0 -69 1 -97 3 -62 2 34 2 90 0 125 -2 34 -3 6 -3 -63z" />
    <path d="M1657 1443 c-10 -9 -9 -273 1 -273 4 0 7 63 7 140 0 77 0 140 -1 140
0 0 -4 -3 -7 -7z" />
  </g>
  <g transform="translate(0.000000,256.000000) scale(0.100000,-0.100000)" fill="#7e9eca" stroke="none">
    <path d="M1308 1893 c56 -2 148 -2 205 0 56 1 10 3 -103 3 -113 0 -159 -2
-102 -3z" />
    <path d="M2268 1893 c34 -2 90 -2 125 0 34 2 6 3 -63 3 -69 0 -97 -1 -62 -3z" />
    <path d="M2024 1625 c0 -66 1 -92 3 -57 2 34 2 88 0 120 -2 31 -3 3 -3 -63z" />
    <path d="M2022 1338 c1 -116 5 -102 10 35 2 42 0 77 -4 77 -5 0 -7 -51 -6
-112z" />
  </g>
  <g transform="translate(0.000000,256.000000) scale(0.100000,-0.100000)" fill="#1d58a7" stroke="none">
    <path d="M810 2150 l-15 -10 143 0 143 0 -6 10 -6 10 -122 0 -122 0 -15 -10z" />
  </g>
  <g transform="translate(0.000000,256.000000) scale(0.100000,-0.100000)" fill="#688dbe" stroke="none">
    <path d="M1408 1443 c34 -2 90 -2 125 0 34 2 6 3 -63 3 -69 0 -97 -1 -62 -3z" />
    <path d="M1728 1443 c39 -2 105 -2 145 0 39 1 7 3 -73 3 -80 0 -112 -2 -72 -3z" />
    <path d="M2060 1443 c108 -7 228 -7 223 0 -2 4 -64 6 -136 5 -73 -1 -112 -3
-87 -5z" />
    <path d="M1448 689 c13 -14 27 -39 32 -55 l8 -29 1 23 1 22 -32 33 c-18 18
-23 21 -10 6z" />
  </g>
  <g transform="translate(0.000000,256.000000) scale(0.100000,-0.100000)" fill="#b7c9e0" stroke="none">
    <path d="M1954 1630 c0 -69 1 -97 3 -62 2 34 2 90 0 125 -2 34 -3 6 -3 -63z" />
    <path d="M1954 1330 c0 -69 1 -97 3 -62 2 34 2 90 0 125 -2 34 -3 6 -3 -63z" />
  </g>
  <g transform="translate(0.000000,256.000000) scale(0.100000,-0.100000)" fill="#d9e2ee" stroke="none">
    <path d="M860 2153 c109 -7 218 -7 213 0 -2 4 -61 6 -131 5 -70 -1 -107 -3
-82 -5z" />
  </g>
  <g transform="translate(0.000000,256.000000) scale(0.100000,-0.100000)" fill="#4573b3" stroke="none">
    <path d="M743 1715 c0 -44 2 -61 4 -37 2 23 2 59 0 80 -2 20 -4 1 -4 -43z" />
  </g>
  <g transform="translate(0.000000,256.000000) scale(0.100000,-0.100000)" fill="#8ea9ce" stroke="none" />
  <g transform="translate(0.000000,256.000000) scale(0.100000,-0.100000)" fill="#396bb0" stroke="none" />
  <g transform="translate(0.000000,256.000000) scale(0.100000,-0.100000)" fill="#cfdae9" stroke="none" />
  <g transform="translate(0.000000,256.000000) scale(0.100000,-0.100000)" fill="#aabfda" stroke="none">
    <path d="M863 2003 c26 -2 68 -2 95 0 26 2 4 3 -48 3 -52 0 -74 -1 -47 -3z" />
  </g>
  <g transform="translate(0.000000,256.000000) scale(0.100000,-0.100000)" fill="#5a83ba" stroke="none" />
  <g transform="translate(0.000000,256.000000) scale(0.100000,-0.100000)" fill="#9cb3d4" stroke="none" />
  <g transform="translate(0.000000,256.000000) scale(0.100000,-0.100000)" fill="#4f7bb5" stroke="none" />
</svg>